<svg width="26" height="29" viewBox="0 0 26 29" fill="none" xmlns="http://www.w3.org/2000/svg">
<path fill-rule="evenodd" clip-rule="evenodd" d="M0.0990006 27.491V9.99836e-06H16.4959V4.79201H5.22999V11.3495H15.6035V16.1415H5.22999V22.699H16.4959V27.491H0.0990006Z" fill="#000C22"/>
<path d="M21.544 27.1214C21.1946 27.1214 20.8942 26.9979 20.6428 26.7507C20.3913 26.4993 20.2656 26.1967 20.2656 25.843C20.2656 25.4936 20.3913 25.1953 20.6428 24.9482C20.8942 24.6967 21.1946 24.571 21.544 24.571C21.8935 24.571 22.1939 24.6967 22.4453 24.9482C22.6967 25.1953 22.8224 25.4936 22.8224 25.843C22.8224 26.0774 22.7628 26.2926 22.6435 26.4886C22.5284 26.6804 22.375 26.8338 22.1832 26.9489C21.9915 27.0639 21.7784 27.1214 21.544 27.1214Z" fill="#000C22"/>
</svg>
