<?xml version="1.0" encoding="UTF-8" standalone="no"?><!DOCTYPE svg PUBLIC "-//W3C//DTD SVG 1.1//EN" "http://www.w3.org/Graphics/SVG/1.1/DTD/svg11.dtd"><svg width="100%" height="100%" viewBox="0 0 1230 451" version="1.1" xmlns="http://www.w3.org/2000/svg" xmlns:xlink="http://www.w3.org/1999/xlink" xml:space="preserve" xmlns:serif="http://www.serif.com/" style="fill-rule:evenodd;clip-rule:evenodd;stroke-linejoin:round;stroke-miterlimit:2;"><g><path d="M951.033,237.204c6.221,-0.246 21.609,1.8 54.834,3.029c34.741,1.309 41.654,-25.575 40.221,-42.271c-35.438,7.609 -43.826,9.617 -74.392,9.617c-32.163,0 -71.729,8.959 -72.471,37.196c-0.692,28.071 36.013,34.333 55.038,39.733c5.32,1.23 7.329,5.525 3.808,8.267c-8.146,6.546 -26.558,15.142 -28.767,30.483c-3.108,21.73 16.696,38.75 41.742,38.263c33.392,-0.738 70.258,-14.896 105.696,-57.413c10.021,-11.987 21.275,-32.325 28.191,-41.245c1.642,-3.23 6.471,-4.746 8.555,-4.5c6.304,1.391 15.262,6.179 14.079,13.054c-1.842,10.516 -30.484,43.296 -11.417,63.058c11.704,12.113 41.208,20.913 64.692,3.85c22.016,-16 14.241,-30.612 5.525,-31.712c-6.221,-0.738 -23.613,21.112 -37.688,5.52c-11.704,-12.929 16.079,-39.687 21.609,-49.266c7.979,-13.75 -23.121,-24.142 -36.213,-41.204c-8.392,-11.255 13.458,-45.834 -13.912,-54.955c-8.963,-2.987 -36.667,13.709 -26.809,61.463c-12.562,47.262 -108.354,130 -121.121,96.65c-3.108,-8.142 5.155,-21.646 27.05,-26.229c36.213,-7.571 33.392,-29.954 16.121,-32.204c-27.133,-3.521 -34.7,-3.521 -67.071,-11.088c-12.766,-1.362 -12.358,-18.342 2.7,-18.096" style="fill-rule:nonzero;"/><path d="M427.008,289.296c-8.716,8.837 -18.783,21.033 -20.129,30.896c-2.946,21.358 8.063,40.221 35.188,39.729c29.179,-0.488 38.754,-21.604 87.529,-51.271c13.629,-8.308 30.525,-22.304 37.525,-23.45c2.662,0 6.587,0.858 6.342,6.017c-4.175,19.433 -8.675,32.487 -3.684,49.1c3.6,11.662 19.067,19.029 30.238,10.558c18.579,-14.075 18.862,-22.1 42.929,-53.808c4.05,-5.242 18.658,-29.342 25.45,-26.146c5.608,2.696 4.05,10.475 3.029,16.608c-5.075,29.709 -17.967,76.604 40.712,69.359c13.955,-1.717 25.167,-11.13 14.567,-21.113c-6.379,-6.012 -13.541,-1.675 -21.608,-3.521c-18.863,-4.337 27.787,-90.187 5.525,-106.104c-31.263,-22.383 -60.192,17.271 -81.963,46.279c-8.596,11.413 -14.895,6.425 -20.5,-9.7c-6.179,-17.879 -43.375,-4.783 -64.695,6.221c-34.005,17.554 -96.896,76.313 -102.75,47.017c-1.021,-5.075 7.204,-16.371 22.466,-21.938c17.967,-6.508 38.221,-12.316 38.221,-23.116c0,-8.35 -5.033,-14.2 -10.433,-13.917c-25.004,1.392 -54.096,8.021 -87.446,-1.184c-7.567,-0.041 -10.804,-19.154 11.704,-16.612c5.933,0.654 19.192,1.554 69.604,2.533c35.479,0.738 36.254,-25.858 31.55,-39.979c-29.546,8.796 -44.562,7.817 -75.825,7.817c-32.733,-0 -76.929,4.5 -75.046,36.091c1.596,26.596 38.913,33.88 58.23,36.046c5.524,-0.475 7.283,4.805 3.27,7.588" style="fill-rule:nonzero;"/><path d="M319.392,221.121c2.987,-11.046 9.533,-13.546 18.087,-15.592c12.763,-4.175 30.729,-9.737 41.654,-11.741c27.788,-6.834 35.725,-5.238 39.288,-24.43c2.533,-13.379 -3.233,-19.804 -3.233,-19.804c-0,0 -60.517,18.946 -72.671,22.304c-10.559,4.542 -8.554,-6.545 -8.554,-6.545c-0,-0 -1.513,7.033 5.033,-21.609c19.8,-87.246 8.179,-110.487 -7.534,-123.746c-39.891,-32.937 -185.529,35.48 -289.67,117.688c-34.7,30.196 -54.834,37.237 -32.205,61.375c20.134,20.092 33.188,4.992 33.188,4.992c19.108,-15.059 60.354,-57.288 87.487,-77.421c38.667,-28.642 92.071,-69.929 139.33,-80.984c37.525,-9.533 48.775,1.517 43.745,39.775c-2.904,32.738 -28.154,106.6 -28.154,106.6c0,0 -38.712,17.267 -50.291,21.605c-9.042,3.358 -18.575,1.025 -19.642,21.608c-0.446,22.137 12.892,13.829 21.933,10.396c6.875,-2.621 23.284,-10.354 29.384,-12.892c4.541,-3.521 9.575,-0.492 7.037,6.013c-4.504,14.608 -12.687,38.22 -28.154,72.429c-19.6,46.775 -54.833,110.65 -59.375,126.729c0.575,10.558 12.108,12.071 27.337,12.275c13.992,-1.063 20.5,-10.763 20.5,-10.763c0,0 18.209,-39.12 46.242,-108.108c20.334,-50.083 33.592,-91.45 39.238,-110.154"/><path d="M819.967,239.454c-21.809,-6.304 -40.88,19.521 -46.484,42.517c-5.075,20.992 -2.37,49.187 16.575,52.787c15.263,2.946 32.9,-10.354 37.442,-35.029c1.225,-6.587 4.008,-27.621 4.867,-33.062c5.196,-33.392 9.087,-48.042 9.087,-48.042c18.209,-69.808 61.871,-205.537 73.734,-213.475c12.362,-8.187 46.32,-9.621 35.645,18.738c-16.491,44.029 -35.725,83.07 -53.116,137.412c-20.417,63.671 -59.821,165.971 -24.634,170.475c16.492,2.125 23.121,-13.1 33.025,-5.362c15.1,11.825 -1.433,33.229 -30.525,36.05c-39.979,1.433 -39.158,-22.013 -56.92,-11.909c-56.959,32.329 -92.03,-12.887 -80.855,-69.604c9.617,-48.529 47.013,-82.862 88.796,-61.829c0,-0 10.679,5.317 9.784,14.362c-0.709,6.992 -5.942,8.425 -16.421,5.971" style="fill-rule:nonzero;"/></g></svg>