<?xml version="1.0" encoding="UTF-8" standalone="no"?><!DOCTYPE svg PUBLIC "-//W3C//DTD SVG 1.1//EN" "http://www.w3.org/Graphics/SVG/1.1/DTD/svg11.dtd"><svg width="100%" height="100%" viewBox="0 0 1250 792" version="1.1" xmlns="http://www.w3.org/2000/svg" xmlns:xlink="http://www.w3.org/1999/xlink" xml:space="preserve" xmlns:serif="http://www.serif.com/" style="fill-rule:evenodd;clip-rule:evenodd;stroke-linejoin:round;stroke-miterlimit:2;"><g><g><g><g><path d="M298.067,192.583c22.37,0 40.512,-18.141 40.512,-40.508c0,-22.367 -18.142,-40.504 -40.512,-40.504c-22.371,-0 -40.509,18.142 -40.509,40.504c0,22.363 18.138,40.508 40.509,40.508" style="fill-rule:nonzero;"/><path d="M230.842,242.546l-0,-86.558c-0,-29.405 -29.079,-56.15 -51.575,-49.421c-22.363,6.808 -116.313,35.504 -120.167,37.225c-3.842,1.787 -52.933,20.716 -52.933,74.437l0.741,349.067c0,-0 2.117,35.112 38.65,34.408c0,0 10.688,0 27.834,-9.304c-0,0 42.254,-23.146 45.112,-24.396c2.729,-1.171 25.725,-8.525 26.467,22.909l-0,196.041l69.346,-22.212l-0,-173.829c-0,-11.805 8.579,-70.226 38.645,-94.38c1.863,-1.566 16.409,-10.945 29.326,6.413c13.045,17.362 24.358,20.016 24.358,20.016c-0,0 14.037,6.176 26.475,-15.012c0.741,-1.483 22.616,-37.692 23.608,-39.333c0.992,-1.642 4.225,-6.492 13.542,-5.704c-0,-0 22.996,-1.488 19.383,30.729c0,-0 106.375,-32.296 115.196,-37.225c1.362,-0.546 42,-16.809 66.483,-54.346c0,-0 7.329,-10.792 16.521,-10.008c1.617,-0 24.238,1.408 17.779,31.437c0,0 103.138,-31.512 108.854,-34.325c12.18,-5.004 44.363,-18.379 43.625,-55.758c0.371,-11.104 -2.612,-30.492 -18.645,-44.413c-0.867,-0.862 -70.959,-52.475 -71.58,-52.937c-6.091,-5.163 -9.195,-16.896 0.742,-29.325c0,-0 7.829,-11.417 19.383,-10.713c0,0 8.705,-0.391 22.13,17.204c1.733,1.721 11.675,15.017 18.637,16.421c0,0 5.713,1.875 12.8,-5.004c17.4,-15.092 26.471,-15.717 26.471,-15.717c0,0 25.1,-7.191 25.1,21.425l0,60.134c0,13.141 17.271,53.408 56.542,51.458c-0,0 13.541,-1.408 26.471,-5.004l42.125,-13.525c-0,-0 53.058,-15.95 71.575,-50.121c-0,0 8.82,-17.129 21.495,-17.129c0,-0 22.121,-2.888 20.009,30.737l60.146,-20.02l-0,-145.234c-0,0 -1.734,-17.2 18.516,-17.2c20.009,0 19.383,15.713 19.383,15.713l0,300.508c0,8.446 8.825,34.717 37.9,34.325c0,-0 81.521,-0.7 81.521,-70.142l0,-26.433l-20.754,7.121l0,25.096c0,-0 1.375,16.895 -17.892,17.829c-1.741,0.391 -20.629,-0.313 -20.008,-18.613l0,-367.666c0,-0 -1.487,-17.205 -18.646,-17.205c0,0 -15.654,-1.408 -27.833,20.096c-12.179,21.425 -16.525,37.846 -32.925,37.846c-0,0 -19.513,2.346 -19.267,-15.017l0,-18.608l-61.633,20.096l-0,70.767c-0,17.595 -13.171,104.862 -36.408,105.17c-1.621,0.238 -23.488,3.288 -24.363,-18.608l0,-82.262c0.621,-11.1 -8.071,-44.263 -35.787,-40.738l-24.971,5.004l-0,178.134c-0,5.47 -1.996,31.745 -31.571,32.912c-2.608,0.396 -31.438,-0.779 -31.438,-28.617l0,-115.879c0,0 -1.362,-20.8 19.384,-22.208l0.621,-30.029c-0,-0 -62.884,14.312 -92.205,67.254c-3.475,3.75 -10.808,7.112 -15.783,7.112c-2.979,0 -17.142,-0.862 -17.892,-15.016l0,-19.313l-103.758,34.325c0,0 -40.762,12.909 -40.762,54.429c-0,0 -0,28.617 17.895,42.146l72.321,54.425c0,0 12.304,8.763 6.338,23.621c-0.754,2.5 -9.2,19.625 -26.475,20.017c-3.359,0.387 -14.292,-0 -20.754,-16.5c-0,-0 -5.713,-21.429 -24.23,-15.017c0,0 -34.795,12.2 -37.275,12.904c-2.354,0.704 -22.866,4.3 -22.866,-20.021l-0,-80.145c-0,-5.95 -7.334,-39.884 -35.788,-38.63c0,0 -16.408,1.409 -30.687,7.896l-0,35.034c-0,-0 19.258,-2.892 19.258,22.133l0,120.967c0,-0 0.867,30.183 -30.696,30.733c-26.475,-0.313 -30.816,-25.571 -30.816,-28.621c-0.255,-17.121 0.741,-385.583 0.741,-385.583l-62.995,24.312l0.741,263.984c0,-0 -3.85,85.704 -27.962,118.783c-6.95,9.462 -31.438,9.462 -33.55,-11.5l-0,-135.9l-61.509,19.317l0,55.05c0,9.229 -8.579,118.541 -40.016,116.979c-3.979,0.083 -12.429,-4.304 -12.559,-23.067l0.38,-133.167l-60.146,21.425c-0,0 -0.621,73.188 -0.75,77.259c-1.863,23.462 1.487,129.492 -68.717,129.492c0,-0 -17.15,0.704 -17.15,-20.021l0,-296.205c0,0 1.988,-33.466 27.958,-45.12c0,-0 26.475,-9.463 32.188,-11.417c5.592,-1.954 27.212,-0 27.212,23.617l0,75.145l75.809,-23.616" style="fill-rule:nonzero;"/></g></g></g></g></svg>