<svg width="130" height="28" viewBox="0 0 130 28" fill="none" xmlns="http://www.w3.org/2000/svg">
<path fill-rule="evenodd" clip-rule="evenodd" d="M5.13316 22.7027H9.3735C10.8241 22.7027 11.8284 22.4504 12.498 21.8198C13.1675 21.1892 13.5023 20.3063 13.5023 19.2973C13.5023 18.1622 13.1675 17.2793 12.3864 16.5225C11.7168 15.7658 10.7126 15.3874 9.48508 15.3874H5.13315L5.13316 22.7027ZM5.13316 11.4775H8.92715C9.93144 11.4775 10.8242 11.2252 11.6053 10.5946C12.2748 9.96396 12.6096 9.08107 12.6096 8.07206C12.6096 7.06305 12.2748 6.3063 11.7169 5.67567C11.0473 5.04504 10.2662 4.79279 9.03874 4.79279H5.13316V11.4775ZM0.00012207 27.4955V0H9.70827C12.3864 0 14.395 0.63063 15.734 2.01802C17.0731 3.27928 17.7426 5.04505 17.7426 7.06306C17.7426 8.7027 17.2963 9.96397 16.5151 10.973C15.734 11.982 14.6181 12.6126 13.3907 12.991V13.2432C14.2834 13.2432 15.1761 13.6216 15.9572 14.1261C16.7383 14.6306 17.4078 15.3874 17.9658 16.3964C18.5237 17.4054 18.7469 18.5405 18.7469 19.9279C18.7469 21.4414 18.4121 22.7027 17.7426 23.8378C17.0731 24.973 16.1804 25.8558 14.9529 26.4865C13.7254 27.1171 12.1632 27.4955 10.3778 27.4955H0.00012207Z" fill="#000C22"/>
<path fill-rule="evenodd" clip-rule="evenodd" d="M22.0991 27.491V9.99836e-06H38.4959V4.79201H27.23V11.3495H37.6036V16.1415H27.23V22.699H38.4959V27.491H22.0991Z" fill="#000C22"/>
<path fill-rule="evenodd" clip-rule="evenodd" d="M55.792 7.94595C55.6804 6.81081 55.234 6.05406 54.5643 5.42343C53.8947 4.7928 52.8902 4.54055 51.6626 4.54055C50.4349 4.54055 49.4304 4.7928 48.7608 5.42343C48.0912 6.05406 47.7563 6.68469 47.7563 7.56757C47.7563 8.57658 48.0912 9.33333 48.8724 9.83784C49.6536 10.3424 50.5465 10.7207 51.551 10.973L53.7831 11.6036C55.234 11.982 56.4616 12.4865 57.5777 13.1171C58.6938 13.7477 59.5866 14.6306 60.1446 15.7658C60.8143 16.7748 61.0375 18.1622 61.0375 19.6757C61.0375 22.1982 60.1446 24.2162 58.5821 25.7297C57.0197 27.2432 54.5643 28 51.6625 28C48.7608 28 46.3055 27.2432 44.6314 25.7297C42.9573 24.2162 41.9528 21.9459 41.8412 19.045H46.8635C46.9751 20.4324 47.4215 21.4415 48.3144 22.1982C49.2072 22.955 50.3233 23.2072 51.6625 23.2072C53.0018 23.2072 54.0063 22.955 54.7875 22.3243C55.5688 21.6937 56.0152 20.937 56.0152 19.9279C56.0152 19.0451 55.6804 18.2883 54.8991 17.7838C54.1179 17.2793 53.1134 16.9009 51.8858 16.5225L49.2072 15.7658C47.1983 15.2613 45.5242 14.3784 44.2965 13.1171C43.0689 11.8559 42.5108 10.3424 42.5108 8.32433C42.5108 6.68469 42.8457 5.17118 43.7385 3.90992C44.5197 2.64866 45.6358 1.63965 46.9751 1.00902C48.3144 0.37839 49.9884 1e-05 51.7741 1e-05C53.5598 1e-05 55.1223 0.37839 56.4616 1.00902C57.8009 1.76577 58.9169 2.64866 59.5866 3.90992C60.2562 5.17118 60.7026 6.55857 60.7026 8.19821H55.792L55.792 7.94595Z" fill="#000C22"/>
<path fill-rule="evenodd" clip-rule="evenodd" d="M71.3048 16.6486H77.4422L74.4293 6.18017H74.2061L71.3048 16.6486ZM68.1804 27.4955H62.601L70.9701 0H77.5538L86.0344 27.4955H80.5666L78.7812 21.1892H69.9658L68.1804 27.4955Z" fill="#000C22"/>
<path fill-rule="evenodd" clip-rule="evenodd" d="M94.1804 13.1171H97.6396C100.541 13.1171 101.992 11.7297 101.992 9.08107C101.992 6.3063 100.541 4.79278 97.528 4.79278H94.0688V13.1171L94.1804 13.1171ZM89.0473 27.4955V0H98.6439C101.434 0 103.554 0.75676 105.116 2.39639C106.678 4.03603 107.459 6.18017 107.459 8.95495C107.459 10.8468 107.125 12.4865 106.343 13.7477C105.562 15.1351 104.558 16.1441 103.107 16.7748L108.24 27.4955H102.549L97.9744 17.7838H94.1804V27.4955H89.0473Z" fill="#000C22"/>
<path fill-rule="evenodd" clip-rule="evenodd" d="M110.022 4.792V0H130V4.792H122.522V27.491H117.388V4.792H110.022Z" fill="#000C22"/>
</svg>
