<svg width="16" height="20" viewBox="0 0 16 20" fill="none" xmlns="http://www.w3.org/2000/svg">
<path fill-rule="evenodd" clip-rule="evenodd" d="M5.35787 2.62785C6.04049 1.94524 6.84123 1.61343 7.80608 1.61343C8.77077 1.61343 9.57167 1.94524 10.2544 2.62785C10.937 3.3106 11.269 4.1115 11.269 5.07605C11.269 6.04089 10.937 6.84165 10.2544 7.5244C9.57166 8.20715 8.77077 8.53897 7.80608 8.53897C6.84153 8.53897 6.04077 8.20701 5.35787 7.5244C4.67512 6.84179 4.34316 6.04089 4.34316 5.07605C4.34316 4.1115 4.67511 3.3106 5.35787 2.62785ZM7.80608 9.65239C9.06344 9.65239 10.1521 9.20143 11.0418 8.31167C11.9313 7.42206 12.3824 6.33357 12.3824 5.07605C12.3824 3.81897 11.9314 2.73033 11.0417 1.84043C10.1519 0.95096 9.06331 0.5 7.80609 0.5C6.54857 0.5 5.46007 0.95097 4.57046 1.84058C3.68085 2.73019 3.22974 3.81883 3.22974 5.07605C3.22974 6.33357 3.68085 7.4222 4.57046 8.31181C5.46037 9.20128 6.549 9.65239 7.80609 9.65239H7.80608Z" fill="black"/>
<path fill-rule="evenodd" clip-rule="evenodd" d="M14.1469 17.8127C13.7412 18.1988 13.2025 18.3865 12.5001 18.3865H3.35159C2.64898 18.3865 2.11031 18.1988 1.70472 17.8128C1.30681 17.434 1.11343 16.917 1.11343 16.2325C1.11343 15.8764 1.12517 15.5249 1.14865 15.1875C1.17155 14.8564 1.21838 14.4926 1.28781 14.1062C1.35638 13.7245 1.44364 13.3663 1.54743 13.0421C1.64702 12.7311 1.78284 12.4232 1.95128 12.1266C2.11204 11.844 2.29701 11.6015 2.50111 11.4061C2.69202 11.2233 2.93265 11.0737 3.21619 10.9615C3.47842 10.8577 3.77312 10.8009 4.09304 10.7923C4.13203 10.813 4.20147 10.8526 4.31396 10.926C4.54285 11.0751 4.80667 11.2453 5.09833 11.4316C5.4271 11.6412 5.85067 11.8305 6.35671 11.9939C6.87407 12.1612 7.40172 12.2461 7.92545 12.2461C8.44919 12.2461 8.97698 12.1612 9.49405 11.994C10.0005 11.8304 10.424 11.6412 10.7532 11.4313C11.0516 11.2405 11.3081 11.0753 11.537 10.926C11.6494 10.8528 11.7189 10.813 11.7579 10.7923C12.0779 10.8009 12.3726 10.8577 12.635 10.9615C12.9184 11.0737 13.159 11.2234 13.3499 11.4061C13.5541 11.6013 13.739 11.8438 13.8998 12.1268C14.0684 12.4232 14.2043 12.7313 14.3038 13.0419C14.4077 13.3666 14.4951 13.7247 14.5635 14.1061C14.6328 14.4932 14.6798 14.8571 14.7027 15.1876V15.1879C14.7263 15.524 14.7382 15.8755 14.7384 16.2325C14.7382 16.9171 14.5448 17.434 14.1469 17.8127V17.8127ZM15.8134 15.11C15.7877 14.7398 15.7358 14.336 15.6594 13.9095C15.5823 13.4799 15.483 13.0737 15.3642 12.7024C15.2412 12.3187 15.0744 11.9398 14.8678 11.5767C14.6537 11.1998 14.4021 10.8716 14.1197 10.6016C13.8244 10.319 13.4629 10.0919 13.0448 9.9262C12.6282 9.76136 12.1665 9.67788 11.6726 9.67788C11.4787 9.67788 11.2911 9.75745 10.9289 9.99332C10.7059 10.1387 10.4451 10.3068 10.154 10.4928C9.90516 10.6514 9.56798 10.8 9.15152 10.9345C8.7452 11.066 8.33265 11.1327 7.92532 11.1327C7.51828 11.1327 7.10572 11.066 6.69912 10.9345C6.28309 10.8001 5.94577 10.6516 5.69731 10.493C5.40899 10.3087 5.14806 10.1406 4.92178 9.99317C4.55982 9.7573 4.37224 9.67773 4.17829 9.67773C3.68427 9.67773 3.22272 9.76136 2.80626 9.92633C2.38849 10.0917 2.02682 10.3189 1.73125 10.6017C1.44887 10.8719 1.19722 11.1999 0.98326 11.5767C0.77698 11.9398 0.60999 12.3186 0.48707 12.7026C0.36835 13.0738 0.26905 13.4799 0.19193 13.9095C0.11539 14.3354 0.06364 14.7394 0.03798 15.1105C0.01276 15.4733 0 15.8509 0 16.2325C0 17.2243 0.31528 18.0272 0.93701 18.6193C1.55105 19.2037 2.3634 19.5 3.35158 19.5H12.5002C13.4881 19.5 14.3004 19.2037 14.9146 18.6193C15.5365 18.0276 15.8518 17.2244 15.8518 16.2323C15.8517 15.8495 15.8387 15.4719 15.8134 15.11V15.11Z" fill="black"/>
</svg>
