<svg width="20" height="21" viewBox="0 0 20 21" fill="none" xmlns="http://www.w3.org/2000/svg">
<path d="M17.5 5.48333C14.725 5.20833 11.9333 5.06667 9.15 5.06667C7.5 5.06667 5.85 5.15 4.2 5.31667L2.5 5.48333" stroke="#F04438" stroke-width="1.5" stroke-linecap="round" stroke-linejoin="round"/>
<path d="M7.08337 4.64167L7.26671 3.55001C7.40004 2.75834 7.50004 2.16667 8.90837 2.16667H11.0917C12.5 2.16667 12.6084 2.79167 12.7334 3.55834L12.9167 4.64167" stroke="#F04438" stroke-width="1.5" stroke-linecap="round" stroke-linejoin="round"/>
<path d="M15.7083 8.11667L15.1666 16.5083C15.075 17.8167 15 18.8333 12.675 18.8333H7.32496C4.99996 18.8333 4.92496 17.8167 4.83329 16.5083L4.29163 8.11667" stroke="#F04438" stroke-width="1.5" stroke-linecap="round" stroke-linejoin="round"/>
<path d="M8.60828 14.25H11.3833" stroke="#F04438" stroke-width="1.5" stroke-linecap="round" stroke-linejoin="round"/>
<path d="M7.91663 10.9167H12.0833" stroke="#F04438" stroke-width="1.5" stroke-linecap="round" stroke-linejoin="round"/>
</svg>
